<svg width="30" height="30" viewBox="0 0 30 30" fill="none" xmlns="http://www.w3.org/2000/svg">
<path fill-rule="evenodd" clip-rule="evenodd" d="M2.8125 15C2.8125 8.2713 8.2713 2.8125 15 2.8125C21.7287 2.8125 27.1875 8.2713 27.1875 15C27.1875 21.7287 21.7287 27.1875 15 27.1875C8.2713 27.1875 2.8125 21.7287 2.8125 15ZM15 4.6875C9.30683 4.6875 4.6875 9.30683 4.6875 15C4.6875 20.6932 9.30683 25.3125 15 25.3125C20.6932 25.3125 25.3125 20.6932 25.3125 15C25.3125 9.30683 20.6932 4.6875 15 4.6875Z" fill="black"/>
<path fill-rule="evenodd" clip-rule="evenodd" d="M10.5871 10.5871C10.9532 10.221 11.5468 10.221 11.9129 10.5871L15 13.6742L18.0871 10.5871C18.4532 10.221 19.0468 10.221 19.4129 10.5871C19.779 10.9532 19.779 11.5468 19.4129 11.9129L16.3258 15L19.4129 18.0871C19.779 18.4532 19.779 19.0468 19.4129 19.4129C19.0468 19.779 18.4532 19.779 18.0871 19.4129L15 16.3258L11.9129 19.4129C11.5468 19.779 10.9532 19.779 10.5871 19.4129C10.221 19.0468 10.221 18.4532 10.5871 18.0871L13.6742 15L10.5871 11.9129C10.221 11.5468 10.221 10.9532 10.5871 10.5871Z" fill="black"/>
</svg>
