<svg width="34" height="43" viewBox="0 0 34 43" fill="none" xmlns="http://www.w3.org/2000/svg">
<path d="M32.9699 30.7324L27.2 26.8762V42.7813H33.15C33.6196 42.7813 34 42.1881 34 41.4558V33.1686C34 32.6499 33.9024 32.1426 33.7193 31.7096C33.5362 31.2765 33.2756 30.9368 32.9699 30.7324ZM0 33.1686V41.4558C0 42.1881 0.380375 42.7813 0.85 42.7813H6.8V26.8762L1.03009 30.7324C0.724363 30.9368 0.463808 31.2765 0.280707 31.7096C0.0976065 32.1426 7.03378e-06 32.6499 0 33.1686ZM24.6744 20.8025L22.1 18.3935V8.86955C22.1 8.16625 21.921 7.49277 21.6017 6.99491L17.6008 0.756318C17.2688 0.238576 16.7307 0.238576 16.3992 0.756318L12.3983 6.99491C12.0796 7.49194 11.9 8.16625 11.9 8.86955V18.3935L9.32556 20.8025C9.07378 21.0379 8.8654 21.3711 8.72073 21.7694C8.57605 22.1678 8.5 22.6178 8.5 23.0756V42.7813H13.6V34.8287C13.6 31.9004 15.1226 29.5271 17 29.5271C18.8774 29.5271 20.4 31.9004 20.4 34.8287V42.7813H25.5V23.0756C25.5 22.1445 25.1866 21.2813 24.6744 20.8025Z" fill="black"/>
</svg>
