<svg width="46" height="43" viewBox="0 0 46 43" fill="none" xmlns="http://www.w3.org/2000/svg">
<path d="M32.2084 0L28.9766 8.14199L39.8316 19.0092L45.5172 13.3178L32.2084 0ZM16.5498 0.50957C6.95508 7.05 0.253906 16.2563 0 28.723C6.0791 17.0222 15.8649 6.74141 24.9238 2.38027L16.5498 0.50957ZM7.30605 2.02012L4.41904 4.90723C5.12959 5.58691 5.83799 6.26397 6.54922 6.94268C7.41709 5.92803 8.34316 4.95537 9.31416 4.02207L7.30605 2.02012ZM41.8581 2.02012L39.3312 4.54395L42.1357 7.35156C43.0059 6.53516 43.8762 5.71797 44.7451 4.90098L41.8581 2.02012ZM16.0829 10.7848C15.161 11.6199 14.2446 12.5031 13.3424 13.4276C15.8095 15.7841 18.2766 18.1467 20.7338 20.5321L23.2912 17.9808L16.0829 10.7847V10.7848ZM31.0549 12.8082L4.40078 39.4224L7.26338 42.2759C15.4157 32.8882 24.4271 24.0632 33.6122 15.3685L31.0548 12.8079L31.0549 12.8082ZM28.2961 22.9796C27.4473 23.8019 26.6018 24.6254 25.76 25.4517C31.2186 30.8599 36.616 36.4236 41.8886 42.2912L44.7634 39.4227L28.2961 22.9795V22.9796Z" fill="white"/>
</svg>
