<svg width="50" height="50" viewBox="0 0 50 50" fill="none" xmlns="http://www.w3.org/2000/svg">
<path d="M2.77778 22.2222H19.4444C20.1812 22.2222 20.8877 21.9296 21.4086 21.4086C21.9296 20.8877 22.2222 20.1812 22.2222 19.4444V2.77778C22.2222 2.04107 21.9296 1.33453 21.4086 0.813592C20.8877 0.292658 20.1812 0 19.4444 0H2.77778C2.04107 0 1.33453 0.292658 0.813592 0.813592C0.292658 1.33453 0 2.04107 0 2.77778V19.4444C0 20.1812 0.292658 20.8877 0.813592 21.4086C1.33453 21.9296 2.04107 22.2222 2.77778 22.2222ZM5.55556 5.55556H16.6667V16.6667H5.55556V5.55556ZM47.2222 0H30.5556C29.8188 0 29.1123 0.292658 28.5914 0.813592C28.0704 1.33453 27.7778 2.04107 27.7778 2.77778V19.4444C27.7778 20.1812 28.0704 20.8877 28.5914 21.4086C29.1123 21.9296 29.8188 22.2222 30.5556 22.2222H47.2222C47.9589 22.2222 48.6655 21.9296 49.1864 21.4086C49.7073 20.8877 50 20.1812 50 19.4444V2.77778C50 2.04107 49.7073 1.33453 49.1864 0.813592C48.6655 0.292658 47.9589 0 47.2222 0ZM44.4444 16.6667H33.3333V5.55556H44.4444V16.6667ZM19.4444 50C20.1812 50 20.8877 49.7073 21.4086 49.1864C21.9296 48.6655 22.2222 47.9589 22.2222 47.2222V30.5556C22.2222 29.8188 21.9296 29.1123 21.4086 28.5914C20.8877 28.0704 20.1812 27.7778 19.4444 27.7778H2.77778C2.04107 27.7778 1.33453 28.0704 0.813592 28.5914C0.292658 29.1123 0 29.8188 0 30.5556V47.2222C0 47.9589 0.292658 48.6655 0.813592 49.1864C1.33453 49.7073 2.04107 50 2.77778 50H19.4444ZM5.55556 33.3333H16.6667V44.4444H5.55556V33.3333ZM41.6667 30.5556H36.1111V36.1111H30.5556V41.6667H36.1111V47.2222H41.6667V41.6667H47.2222V36.1111H41.6667V30.5556Z" fill="white"/>
</svg>
